<?xml version="1.0" encoding="UTF-8" standalone="no"?>
<!-- Created with Inkscape (http://www.inkscape.org/) -->

<svg
   xmlns:dc="http://purl.org/dc/elements/1.1/"
   xmlns:cc="http://creativecommons.org/ns#"
   xmlns:rdf="http://www.w3.org/1999/02/22-rdf-syntax-ns#"
   xmlns:svg="http://www.w3.org/2000/svg"
   xmlns="http://www.w3.org/2000/svg"
   xmlns:sodipodi="http://sodipodi.sourceforge.net/DTD/sodipodi-0.dtd"
   xmlns:inkscape="http://www.inkscape.org/namespaces/inkscape"
   width="120"
   height="120"
   viewBox="0 0 120 120"
   id="svg2"
   version="1.1"
   inkscape:version="0.91 r13725"
   inkscape:export-filename="/home/jules/Projects/PyYoutubePiPlayer/static/img/Search.png"
   inkscape:export-xdpi="350.25"
   inkscape:export-ydpi="350.25"
   sodipodi:docname="buttons.svg">
  <defs
     id="defs4" />
  <sodipodi:namedview
     id="base"
     pagecolor="#ffffff"
     bordercolor="#666666"
     borderopacity="1.0"
     inkscape:pageopacity="0.0"
     inkscape:pageshadow="2"
     inkscape:zoom="2.8284271"
     inkscape:cx="55.499908"
     inkscape:cy="96.076783"
     inkscape:document-units="px"
     inkscape:current-layer="layer1"
     showgrid="false"
     units="px"
     showguides="true"
     inkscape:guide-bbox="true"
     inkscape:window-width="1623"
     inkscape:window-height="1026"
     inkscape:window-x="57"
     inkscape:window-y="24"
     inkscape:window-maximized="1">
    <sodipodi:guide
       position="0,98.237335"
       orientation="1,0"
       id="guide5662" />
    <sodipodi:guide
       position="120.00391,120.10547"
       orientation="1,0"
       id="guide5664" />
    <sodipodi:guide
       position="92,120"
       orientation="0,1"
       id="guide5666" />
    <sodipodi:guide
       position="87.25,0"
       orientation="0,1"
       id="guide5668" />
    <sodipodi:guide
       position="109.96875,52.46875"
       orientation="1,0"
       id="guide5691" />
    <sodipodi:guide
       position="70.047765,110.0214"
       orientation="0,1"
       id="guide5693" />
    <sodipodi:guide
       position="9.96875,62.4375"
       orientation="1,0"
       id="guide5695" />
    <sodipodi:guide
       position="47.78495,10.054175"
       orientation="0,1"
       id="guide5697" />
    <sodipodi:guide
       position="185.68182,60.048834"
       orientation="0,1"
       id="guide5723" />
  </sodipodi:namedview>
  <metadata
     id="metadata7">
    <rdf:RDF>
      <cc:Work
         rdf:about="">
        <dc:format>image/svg+xml</dc:format>
        <dc:type
           rdf:resource="http://purl.org/dc/dcmitype/StillImage" />
        <dc:title />
      </cc:Work>
    </rdf:RDF>
  </metadata>
  <g
     inkscape:label="Layer 1"
     inkscape:groupmode="layer"
     id="layer1"
     transform="translate(0,-932.36218)">
    <rect
       style="opacity:1;fill:#aa0000;fill-opacity:1;stroke:#2b0000;stroke-width:2;stroke-linejoin:round;stroke-miterlimit:4;stroke-dasharray:none;stroke-dashoffset:0;stroke-opacity:1"
       id="rect3336"
       width="100"
       height="100"
       x="-129.99805"
       y="942.36218"
       ry="5"
       rx="5" />
    <rect
       style="opacity:1;fill:#666666;fill-opacity:1;stroke:none;stroke-width:2;stroke-linejoin:round;stroke-miterlimit:4;stroke-dasharray:none;stroke-dashoffset:0;stroke-opacity:1"
       id="rect5672"
       width="27"
       height="34.5"
       x="16"
       y="897.86218"
       rx="5"
       ry="5" />
    <rect
       style="opacity:1;fill:#4d4d4d;fill-opacity:1;stroke:none;stroke-width:2;stroke-linejoin:round;stroke-miterlimit:4;stroke-dasharray:none;stroke-dashoffset:0;stroke-opacity:1"
       id="rect5674"
       width="30.24609"
       height="36.75"
       x="120.00391"
       y="948.61218"
       rx="5"
       ry="5" />
    <rect
       style="opacity:1;fill:#666666;fill-opacity:1;stroke:none;stroke-width:2;stroke-linejoin:round;stroke-miterlimit:4;stroke-dasharray:none;stroke-dashoffset:0;stroke-opacity:1"
       id="rect5676"
       width="15.5"
       height="26.25"
       x="-15.5"
       y="963.89343"
       rx="5"
       ry="5" />
    <rect
       style="opacity:1;fill:#666666;fill-opacity:1;stroke:none;stroke-width:2;stroke-linejoin:round;stroke-miterlimit:4;stroke-dasharray:none;stroke-dashoffset:0;stroke-opacity:1"
       id="rect5678"
       width="32.25"
       height="13.25"
       x="32.75"
       y="1052.3622"
       rx="5"
       ry="5" />
    <rect
       style="opacity:1;fill:#666666;fill-opacity:1;stroke:none;stroke-width:2;stroke-linejoin:round;stroke-miterlimit:4;stroke-dasharray:none;stroke-dashoffset:0;stroke-opacity:1"
       id="rect5717"
       width="17.854446"
       height="9.9785995"
       x="171.47339"
       y="932.36218"
       rx="5"
       ry="5" />
    <rect
       style="opacity:1;fill:#666666;fill-opacity:1;stroke:none;stroke-width:2;stroke-linejoin:round;stroke-miterlimit:4;stroke-dasharray:none;stroke-dashoffset:0;stroke-opacity:1"
       id="rect5719"
       width="17.67767"
       height="0.70710701"
       x="172.1805"
       y="991.98975"
       rx="5"
       ry="0.2197803" />
    <rect
       style="opacity:1;fill:#666666;fill-opacity:1;stroke:none;stroke-width:2;stroke-linejoin:round;stroke-miterlimit:4;stroke-dasharray:none;stroke-dashoffset:0;stroke-opacity:1"
       id="rect5721"
       width="17.854446"
       height="10.054175"
       x="165.99332"
       y="1042.308"
       rx="5"
       ry="5" />
    <path
       style="opacity:1;fill:#aa0000;fill-opacity:1;stroke:#2b0000;stroke-width:1.99978054;stroke-linejoin:miter;stroke-miterlimit:4;stroke-dasharray:none;stroke-dashoffset:0;stroke-opacity:1"
       d="m 18.247836,879.4626 c -1.230697,0.6248 -2.718838,0.5657 -3.909649,-0.169 -1.190811,-0.7347 -1.911175,-2.0382 -1.897005,-3.4175 l 0.0026,-87.04265 0.0068,-4.1e-4 c 10e-7,-1.39921 0.731109,-2.69672 1.927945,-3.42155 1.196836,-0.72483 2.685413,-0.77161 3.92177,-0.12833 l 86.975543,43.45467 c 1.36736,0.62824 2.27554,2.03353 2.28699,3.58553 0.0115,1.552 -0.87588,2.97054 -2.23329,3.62348 z"
       id="path5727"
       inkscape:connector-curvature="0"
       sodipodi:nodetypes="cscccsccscc" />
    <rect
       style="opacity:1;fill:#aa0000;fill-opacity:1;stroke:#2b0000;stroke-width:2;stroke-linejoin:miter;stroke-miterlimit:4;stroke-dasharray:none;stroke-dashoffset:0;stroke-opacity:1"
       id="rect5769"
       width="38"
       height="100"
       x="9.96875"
       y="1082.3784"
       rx="5"
       ry="5" />
    <rect
       style="opacity:1;fill:#aa0000;fill-opacity:1;stroke:#2b0000;stroke-width:2;stroke-linejoin:miter;stroke-miterlimit:4;stroke-dasharray:none;stroke-dashoffset:0;stroke-opacity:1"
       id="rect5769-3"
       width="38"
       height="100"
       x="71.96875"
       y="1082.3784"
       rx="5"
       ry="5" />
    <path
       style="opacity:1;fill:#3771c8;fill-opacity:1;stroke:#162d50;stroke-width:2;stroke-linejoin:miter;stroke-miterlimit:4;stroke-dasharray:none;stroke-dashoffset:0;stroke-opacity:1"
       d="m 46.001953,662.3407 c -2.77,0 -5,2.23 -5,5 l 0,26.02148 -26.234375,0 c -2.77,0 -4.9999999,2.23 -4.9999999,5 l 0,28 c 0,2.77 2.2299999,5 4.9999999,5 l 26.234375,0 0,25.94532 c 0,2.77 2.23,5 5,5 l 28,0 c 2.77,0 5,-2.23 5,-5 l 0,-25.94532 25.732427,0 c 2.76999,0 5,-2.23 5,-5 l 0,-28 c -1e-5,-2.77 -2.23001,-5 -5,-5 l -25.732427,0 0,-26.02148 c 0,-2.77 -2.23,-5 -5,-5 l -28,0 z"
       id="rect4226"
       inkscape:connector-curvature="0" />
    <path
       style="opacity:1;fill:#999999;fill-opacity:1;stroke:#2b0000;stroke-width:2;stroke-linejoin:miter;stroke-miterlimit:4;stroke-dasharray:none;stroke-dashoffset:0;stroke-opacity:1"
       d="m 38.082031,1205.6376 c -1.278095,0 -2.555813,0.4913 -3.535156,1.4707 l -19.798828,19.7988 c -1.958686,1.9587 -1.958686,5.1116 0,7.0703 l 18.384765,18.3848 -18.384765,18.3847 c -1.958686,1.9587 -1.958686,5.1117 0,7.0704 l 19.798828,19.7988 c 1.958686,1.9587 5.111627,1.9587 7.070313,0 l 18.384765,-18.3848 18.384766,18.3848 c 1.958686,1.9587 5.111626,1.9587 7.070312,0 l 19.798829,-19.7988 c 1.95869,-1.9587 1.95869,-5.1117 0,-7.0704 l -18.384766,-18.3847 18.384766,-18.3848 c 1.95869,-1.9587 1.95869,-5.1116 0,-7.0703 l -19.798829,-19.7988 c -1.958686,-1.9587 -5.111626,-1.9587 -7.070312,0 l -18.384766,18.3847 -18.384765,-18.3847 c -0.979343,-0.9794 -2.257061,-1.4707 -3.535157,-1.4707 z"
       id="rect5769-3-3"
       inkscape:connector-curvature="0" />
    <path
       style="opacity:1;fill:#917c6f;fill-opacity:1;stroke:#24221c;stroke-width:2;stroke-linejoin:miter;stroke-miterlimit:4;stroke-dasharray:none;stroke-dashoffset:0;stroke-opacity:1"
       d="M 47.755859 10 A 37.987991 37.975544 0 0 0 9.7675781 47.974609 A 37.987991 37.975544 0 0 0 47.755859 85.951172 A 37.987991 37.975544 0 0 0 66.285156 81.076172 L 93.748047 108.53906 C 95.706733 110.49775 98.861627 110.49775 100.82031 108.53906 L 108.50781 100.85156 C 110.4665 98.892877 110.4665 95.737983 108.50781 93.779297 L 81.023438 66.296875 A 37.987991 37.975544 0 0 0 85.744141 47.974609 A 37.987991 37.975544 0 0 0 47.755859 10 z "
       transform="translate(0,932.36218)"
       id="path4232" />
    <ellipse
       style="opacity:1;fill:#afdde9;fill-opacity:1;stroke:#24221c;stroke-width:2;stroke-linejoin:miter;stroke-miterlimit:4;stroke-dasharray:none;stroke-dashoffset:0;stroke-opacity:1"
       id="path4232-3"
       cx="47.755569"
       cy="980.33771"
       rx="27.351353"
       ry="27.342392" />
  </g>
</svg>
