<?xml version="1.0" encoding="UTF-8" standalone="no"?>
<!-- Created with Inkscape (http://www.inkscape.org/) -->

<svg
   xmlns:dc="http://purl.org/dc/elements/1.1/"
   xmlns:cc="http://creativecommons.org/ns#"
   xmlns:rdf="http://www.w3.org/1999/02/22-rdf-syntax-ns#"
   xmlns:svg="http://www.w3.org/2000/svg"
   xmlns="http://www.w3.org/2000/svg"
   xmlns:sodipodi="http://sodipodi.sourceforge.net/DTD/sodipodi-0.dtd"
   xmlns:inkscape="http://www.inkscape.org/namespaces/inkscape"
   sodipodi:docname="buttons.svg"
   inkscape:export-ydpi="350.25"
   inkscape:export-xdpi="350.25"
   inkscape:export-filename="/home/jules/Projects/OMXWebInterface/static/img/Parameters.png"
   inkscape:version="0.91 r13725"
   version="1.1"
   id="svg2"
   viewBox="0 0 120 120"
   height="120"
   width="120">
  <sodipodi:namedview
     inkscape:window-maximized="0"
     inkscape:window-y="20"
     inkscape:window-x="0"
     inkscape:window-height="1038"
     inkscape:window-width="1232"
     inkscape:guide-bbox="true"
     showguides="true"
     units="px"
     showgrid="false"
     inkscape:current-layer="layer1"
     inkscape:document-units="px"
     inkscape:cy="-156.02139"
     inkscape:cx="-115.13549"
     inkscape:zoom="1"
     inkscape:pageshadow="2"
     inkscape:pageopacity="0.0"
     borderopacity="1.0"
     bordercolor="#666666"
     pagecolor="#ffffff"
     id="base">
    <sodipodi:guide
       id="guide5662"
       orientation="1,0"
       position="0,98.237335" />
    <sodipodi:guide
       id="guide5664"
       orientation="1,0"
       position="120.00391,120.10547" />
    <sodipodi:guide
       id="guide5666"
       orientation="0,1"
       position="92,120" />
    <sodipodi:guide
       id="guide5668"
       orientation="0,1"
       position="87.25,0" />
    <sodipodi:guide
       id="guide5691"
       orientation="1,0"
       position="109.96875,52.46875" />
    <sodipodi:guide
       id="guide5693"
       orientation="0,1"
       position="70.047765,110.0214" />
    <sodipodi:guide
       id="guide5695"
       orientation="1,0"
       position="9.96875,62.4375" />
    <sodipodi:guide
       id="guide5723"
       orientation="0,1"
       position="151.5,0" />
    <sodipodi:guide
       id="guide4333"
       orientation="0,1"
       position="-26.693281,10.253048" />
  </sodipodi:namedview>
  <defs
     id="defs4" />
  <metadata
     id="metadata7">
    <rdf:RDF>
      <cc:Work
         rdf:about="">
        <dc:format>image/svg+xml</dc:format>
        <dc:type
           rdf:resource="http://purl.org/dc/dcmitype/StillImage" />
        <dc:title />
      </cc:Work>
    </rdf:RDF>
  </metadata>
  <g
     transform="translate(0,-932.36218)"
     id="layer1"
     inkscape:groupmode="layer"
     inkscape:label="Layer 1">
    <rect
       rx="5"
       ry="5"
       y="942.36218"
       x="-129.99805"
       height="100"
       width="100"
       id="rect3336"
       style="opacity:1;fill:#aa0000;fill-opacity:1;stroke:#2b0000;stroke-width:2;stroke-linejoin:round;stroke-miterlimit:4;stroke-dasharray:none;stroke-dashoffset:0;stroke-opacity:1" />
    <rect
       ry="5"
       rx="5"
       y="897.86218"
       x="16"
       height="34.5"
       width="27"
       id="rect5672"
       style="opacity:1;fill:#666666;fill-opacity:1;stroke:none;stroke-width:2;stroke-linejoin:round;stroke-miterlimit:4;stroke-dasharray:none;stroke-dashoffset:0;stroke-opacity:1" />
    <rect
       ry="5"
       rx="5"
       y="948.61218"
       x="120.00391"
       height="36.75"
       width="30.24609"
       id="rect5674"
       style="opacity:1;fill:#4d4d4d;fill-opacity:1;stroke:none;stroke-width:2;stroke-linejoin:round;stroke-miterlimit:4;stroke-dasharray:none;stroke-dashoffset:0;stroke-opacity:1" />
    <rect
       ry="5"
       rx="5"
       y="963.89343"
       x="-15.5"
       height="26.25"
       width="15.5"
       id="rect5676"
       style="opacity:1;fill:#666666;fill-opacity:1;stroke:none;stroke-width:2;stroke-linejoin:round;stroke-miterlimit:4;stroke-dasharray:none;stroke-dashoffset:0;stroke-opacity:1" />
    <rect
       ry="5"
       rx="5"
       y="1052.3622"
       x="32.75"
       height="13.25"
       width="32.25"
       id="rect5678"
       style="opacity:1;fill:#666666;fill-opacity:1;stroke:none;stroke-width:2;stroke-linejoin:round;stroke-miterlimit:4;stroke-dasharray:none;stroke-dashoffset:0;stroke-opacity:1" />
    <rect
       ry="5"
       rx="5"
       y="932.36218"
       x="171.47339"
       height="9.9785995"
       width="17.854446"
       id="rect5717"
       style="opacity:1;fill:#666666;fill-opacity:1;stroke:none;stroke-width:2;stroke-linejoin:round;stroke-miterlimit:4;stroke-dasharray:none;stroke-dashoffset:0;stroke-opacity:1" />
    <rect
       ry="5"
       rx="5"
       y="1042.308"
       x="165.99332"
       height="10.054175"
       width="17.854446"
       id="rect5721"
       style="opacity:1;fill:#666666;fill-opacity:1;stroke:none;stroke-width:2;stroke-linejoin:round;stroke-miterlimit:4;stroke-dasharray:none;stroke-dashoffset:0;stroke-opacity:1" />
    <path
       sodipodi:nodetypes="cscccsccscc"
       inkscape:connector-curvature="0"
       id="path5727"
       d="m 18.247836,879.4626 c -1.230697,0.6248 -2.718838,0.5657 -3.909649,-0.169 -1.190811,-0.7347 -1.911175,-2.0382 -1.897005,-3.4175 l 0.0026,-87.04265 0.0068,-4.1e-4 c 10e-7,-1.39921 0.731109,-2.69672 1.927945,-3.42155 1.196836,-0.72483 2.685413,-0.77161 3.92177,-0.12833 l 86.975543,43.45467 c 1.36736,0.62824 2.27554,2.03353 2.28699,3.58553 0.0115,1.552 -0.87588,2.97054 -2.23329,3.62348 z"
       style="opacity:1;fill:#aa0000;fill-opacity:1;stroke:#2b0000;stroke-width:1.99978054;stroke-linejoin:miter;stroke-miterlimit:4;stroke-dasharray:none;stroke-dashoffset:0;stroke-opacity:1" />
    <rect
       ry="5"
       rx="5"
       y="1082.3784"
       x="9.96875"
       height="100"
       width="38"
       id="rect5769"
       style="opacity:1;fill:#aa0000;fill-opacity:1;stroke:#2b0000;stroke-width:2;stroke-linejoin:miter;stroke-miterlimit:4;stroke-dasharray:none;stroke-dashoffset:0;stroke-opacity:1" />
    <rect
       ry="5"
       rx="5"
       y="1082.3784"
       x="71.96875"
       height="100"
       width="38"
       id="rect5769-3"
       style="opacity:1;fill:#aa0000;fill-opacity:1;stroke:#2b0000;stroke-width:2;stroke-linejoin:miter;stroke-miterlimit:4;stroke-dasharray:none;stroke-dashoffset:0;stroke-opacity:1" />
    <path
       inkscape:connector-curvature="0"
       id="rect4226"
       d="m 46.001953,662.3407 c -2.77,0 -5,2.23 -5,5 l 0,26.02148 -26.234375,0 c -2.77,0 -4.9999999,2.23 -4.9999999,5 l 0,28 c 0,2.77 2.2299999,5 4.9999999,5 l 26.234375,0 0,25.94532 c 0,2.77 2.23,5 5,5 l 28,0 c 2.77,0 5,-2.23 5,-5 l 0,-25.94532 25.732427,0 c 2.76999,0 5,-2.23 5,-5 l 0,-28 c -1e-5,-2.77 -2.23001,-5 -5,-5 l -25.732427,0 0,-26.02148 c 0,-2.77 -2.23,-5 -5,-5 l -28,0 z"
       style="opacity:1;fill:#3771c8;fill-opacity:1;stroke:#162d50;stroke-width:2;stroke-linejoin:miter;stroke-miterlimit:4;stroke-dasharray:none;stroke-dashoffset:0;stroke-opacity:1" />
    <path
       inkscape:connector-curvature="0"
       id="rect5769-3-3"
       d="m 38.082031,1205.6376 c -1.278095,0 -2.555813,0.4913 -3.535156,1.4707 l -19.798828,19.7988 c -1.958686,1.9587 -1.958686,5.1116 0,7.0703 l 18.384765,18.3848 -18.384765,18.3847 c -1.958686,1.9587 -1.958686,5.1117 0,7.0704 l 19.798828,19.7988 c 1.958686,1.9587 5.111627,1.9587 7.070313,0 l 18.384765,-18.3848 18.384766,18.3848 c 1.958686,1.9587 5.111626,1.9587 7.070312,0 l 19.798829,-19.7988 c 1.95869,-1.9587 1.95869,-5.1117 0,-7.0704 l -18.384766,-18.3847 18.384766,-18.3848 c 1.95869,-1.9587 1.95869,-5.1116 0,-7.0703 l -19.798829,-19.7988 c -1.958686,-1.9587 -5.111626,-1.9587 -7.070312,0 l -18.384766,18.3847 -18.384765,-18.3847 c -0.979343,-0.9794 -2.257061,-1.4707 -3.535157,-1.4707 z"
       style="opacity:1;fill:#999999;fill-opacity:1;stroke:#2b0000;stroke-width:2;stroke-linejoin:miter;stroke-miterlimit:4;stroke-dasharray:none;stroke-dashoffset:0;stroke-opacity:1" />
    <g
       transform="translate(-280,0)"
       id="g4232">
      <path
         inkscape:connector-curvature="0"
         style="opacity:1;fill:#917c6f;fill-opacity:1;stroke:#24221c;stroke-width:2;stroke-linejoin:miter;stroke-miterlimit:4;stroke-dasharray:none;stroke-dashoffset:0;stroke-opacity:1"
         d="M 47.755859,10 A 37.987991,37.975544 0 0 0 9.7675781,47.974609 37.987991,37.975544 0 0 0 47.755859,85.951172 a 37.987991,37.975544 0 0 0 18.529297,-4.875 l 27.462891,27.462888 c 1.958686,1.95869 5.11358,1.95869 7.072263,0 l 7.6875,-7.6875 c 1.95869,-1.958683 1.95869,-5.113577 0,-7.072263 L 81.023438,66.296875 A 37.987991,37.975544 0 0 0 85.744141,47.974609 37.987991,37.975544 0 0 0 47.755859,10 Z"
         transform="translate(0,932.36218)"
         id="path4232" />
      <ellipse
         style="opacity:1;fill:#afdde9;fill-opacity:1;stroke:#24221c;stroke-width:2;stroke-linejoin:miter;stroke-miterlimit:4;stroke-dasharray:none;stroke-dashoffset:0;stroke-opacity:1"
         id="path4232-3"
         cx="47.755569"
         cy="980.33771"
         rx="27.351353"
         ry="27.342392" />
    </g>
    <g
       transform="translate(220,0)"
       id="g4277">
      <path
         style="opacity:1;fill:#afdde9;fill-opacity:1;stroke:#24221c;stroke-width:2;stroke-linejoin:miter;stroke-miterlimit:4;stroke-dasharray:none;stroke-dashoffset:0;stroke-opacity:1"
         d="m 59.96875,9.9785156 c -27.614536,0 -50.0004218,22.3788904 -50,49.9843754 0.024522,12.235217 4.537386,24.036488 12.683594,33.167968 l -5.413419,5.059866 23.224405,2.761765 -3.910817,-21.545023 -4.794701,4.617924 c -5.73699,-6.706336 -8.89725,-15.237098 -8.914062,-24.0625 0,-20.503571 16.621429,-37.125 37.125,-37.125 2.902528,0.01429 5.793365,0.368929 8.613281,1.05664 L 71.908203,11.478516 C 68.003304,10.499844 63.994461,9.9961975 59.96875,9.9785156 Z"
         transform="translate(0,932.36218)"
         id="path4236"
         inkscape:connector-curvature="0"
         sodipodi:nodetypes="cccccccccccc" />
      <path
         style="opacity:1;fill:#afdde9;fill-opacity:1;stroke:#24221c;stroke-width:2;stroke-linejoin:miter;stroke-miterlimit:4;stroke-dasharray:none;stroke-dashoffset:0;stroke-opacity:1"
         d="m 59.938258,1042.3126 c 27.614536,0 50.000442,-22.3789 50.000022,-49.98574 -0.0245,-12.23522 -4.53738,-24.03642 -12.683616,-33.16792 l 5.413446,-5.0599 -23.224432,-2.7618 3.910817,21.5451 4.794701,-4.618 c 5.73699,6.7064 8.89725,15.2371 8.914062,24.06252 0,20.50494 -16.621429,37.12634 -37.125,37.12634 -2.902528,-0.014 -5.793365,-0.3689 -8.613281,-1.0566 l -3.326172,12.416 c 3.904899,0.9787 7.913742,1.4823 11.939453,1.5 z"
         id="path4236-6"
         inkscape:connector-curvature="0"
         sodipodi:nodetypes="cccccccccccc" />
    </g>
    <g
       transform="translate(360,0)"
       id="g4162">
      <path
         style="opacity:1;fill:#afdde9;fill-opacity:1;stroke:#000000;stroke-width:2;stroke-linejoin:miter;stroke-miterlimit:4;stroke-dasharray:none;stroke-dashoffset:0;stroke-opacity:1"
         d="m 59.96875,9.9785156 c -27.614536,0 -50.0004218,22.3788904 -50,49.9843754 0.017498,3.834132 0.476244,7.65352 1.367188,11.382812 l -8.118426,1.871976 29.615963,22.0702 12.161904,-32.592491 -7.618426,1.673753 C 37.08662,62.918164 36.936839,61.442594 36.929688,59.962891 36.928839,47.242313 47.244002,36.929772 59.96875,36.929688 c 1.479458,0.0047 2.955021,0.151881 4.40625,0.439453 l 6.96875,-26.011719 c -3.726281,-0.893871 -7.543003,-1.356544 -11.375,-1.3789064 z"
         transform="translate(0,932.36218)"
         id="path4281"
         inkscape:connector-curvature="0"
         sodipodi:nodetypes="cccccccccccc" />
      <path
         style="opacity:1;fill:#afdde9;fill-opacity:1;stroke:#000000;stroke-width:2;stroke-linejoin:miter;stroke-miterlimit:4;stroke-dasharray:none;stroke-dashoffset:0;stroke-opacity:1"
         d="m 60.13775,1042.2481 c 27.614536,0 50.00042,-22.3789 50,-49.98435 -0.0175,-3.83413 -0.47624,-7.65352 -1.36719,-11.38282 l 8.11843,-1.872 -29.615965,-22.0701 -12.161904,32.59243 7.618426,-1.67376 c 0.290333,1.45098 0.440114,2.92655 0.447265,4.40625 8.49e-4,12.72055 -10.314314,23.03315 -23.039062,23.03325 -1.479458,0 -2.955021,-0.1519 -4.406249,-0.4395 l -6.96875,26.0117 c 3.726281,0.8939 7.543003,1.3566 11.374999,1.3789 z"
         id="path4281-3"
         inkscape:connector-curvature="0"
         sodipodi:nodetypes="cccccccccccc" />
    </g>
    <g
       transform="translate(0,400)"
       style="stroke-width:2;stroke-miterlimit:4;stroke-dasharray:none"
       id="g12013">
      <path
         style="opacity:1;fill:#999999;fill-opacity:1;stroke:#1a1a1a;stroke-width:2.00000024;stroke-linejoin:miter;stroke-miterlimit:4;stroke-dasharray:none;stroke-dashoffset:0;stroke-opacity:1"
         d="m 100.8209,992.54311 c -5e-5,22.51879 -18.297704,40.77409 -40.868981,40.77409 -22.571276,0 -40.868925,-18.2553 -40.868973,-40.77409 -2e-6,-22.51895 18.297661,-40.77417 40.868973,-40.77417 22.571312,0 40.868981,18.25522 40.868981,40.77417 z"
         id="path12009"
         inkscape:connector-curvature="0" />
      <circle
         style="opacity:1;fill:#ffffff;fill-opacity:1;stroke:#1a1a1a;stroke-width:2;stroke-linejoin:miter;stroke-miterlimit:4;stroke-dasharray:none;stroke-dashoffset:0;stroke-opacity:1"
         id="path11989"
         cx="60.001957"
         cy="992.36218"
         r="15.330993" />
      <g
         style="fill:#999999;fill-opacity:1;stroke:#1a1a1a;stroke-width:2;stroke-miterlimit:4;stroke-dasharray:none;stroke-opacity:1"
         id="g12026">
        <path
           sodipodi:nodetypes="cccc"
           inkscape:connector-curvature="0"
           id="path12007"
           d="m 66.862928,953.4314 1.850205,-10.63043 -14.303176,-0.46386 1.329239,10.7239"
           style="opacity:1;fill:#999999;fill-opacity:1;stroke:#1a1a1a;stroke-width:2;stroke-linejoin:miter;stroke-miterlimit:4;stroke-dasharray:none;stroke-dashoffset:0;stroke-opacity:1" />
        <path
           sodipodi:nodetypes="cccc"
           inkscape:connector-curvature="0"
           id="path12003"
           d="M 90.470785,967.04743 98.647,959.98759 88.217307,950.6362 82.02111,959.47181"
           style="opacity:1;fill:#999999;fill-opacity:1;stroke:#1a1a1a;stroke-width:2;stroke-linejoin:miter;stroke-miterlimit:4;stroke-dasharray:none;stroke-dashoffset:0;stroke-opacity:1" />
        <path
           sodipodi:nodetypes="cccc"
           inkscape:connector-curvature="0"
           id="path12001"
           d="m 22.527233,979.04518 -10.092186,-3.90464 -2.976944,13.9916 10.781037,0.80481"
           style="opacity:1;fill:#999999;fill-opacity:1;stroke:#1a1a1a;stroke-width:2;stroke-linejoin:miter;stroke-miterlimit:4;stroke-dasharray:none;stroke-dashoffset:0;stroke-opacity:1" />
        <path
           sodipodi:nodetypes="ccccc"
           inkscape:connector-curvature="0"
           id="path11999"
           d="m 99.791337,992.65427 10.779313,-0.26826 -1.99559,-13.8618 -3e-4,0 -10.395077,2.89213"
           style="opacity:1;fill:#999999;fill-opacity:1;stroke:#1a1a1a;stroke-width:2;stroke-linejoin:miter;stroke-miterlimit:4;stroke-dasharray:none;stroke-dashoffset:0;stroke-opacity:1" />
        <path
           sodipodi:nodetypes="cccc"
           inkscape:connector-curvature="0"
           id="path11997"
           d="m 22.580887,1006.2409 -10.244495,3.4753 6.731009,12.607 8.807946,-6.2776"
           style="opacity:1;fill:#999999;fill-opacity:1;stroke:#1a1a1a;stroke-width:2;stroke-linejoin:miter;stroke-miterlimit:4;stroke-dasharray:none;stroke-dashoffset:0;stroke-opacity:1" />
        <path
           sodipodi:nodetypes="cccc"
           inkscape:connector-curvature="0"
           id="path11995"
           d="m 90.507132,1018.0466 8.134675,7.0632 7.586013,-12.0895 -9.837763,-4.4585"
           style="opacity:1;fill:#999999;fill-opacity:1;stroke:#1a1a1a;stroke-width:2;stroke-linejoin:miter;stroke-miterlimit:4;stroke-dasharray:none;stroke-dashoffset:0;stroke-opacity:1" />
        <path
           sodipodi:nodetypes="cccc"
           inkscape:connector-curvature="0"
           id="path11993"
           d="m 40.056586,1026.9444 -5.372345,9.367 13.280285,5.3135 2.428287,-10.5422"
           style="opacity:1;fill:#999999;fill-opacity:1;stroke:#1a1a1a;stroke-width:2;stroke-linejoin:miter;stroke-miterlimit:4;stroke-dasharray:none;stroke-dashoffset:0;stroke-opacity:1" />
        <path
           sodipodi:nodetypes="cccc"
           inkscape:connector-curvature="0"
           id="path10987"
           d="m 66.859467,1031.685 1.888281,10.601 13.607404,-4.4394 -4.913689,-9.6162"
           style="opacity:1;fill:#999999;fill-opacity:1;stroke:#1a1a1a;stroke-width:2;stroke-linejoin:miter;stroke-miterlimit:4;stroke-dasharray:none;stroke-dashoffset:0;stroke-opacity:1" />
        <path
           sodipodi:nodetypes="cccc"
           inkscape:connector-curvature="0"
           id="path12005"
           d="m 40.025432,958.17719 -5.310037,-9.4137 -11.27604,8.80793 7.817939,7.45792"
           style="opacity:1;fill:#999999;fill-opacity:1;stroke:#1a1a1a;stroke-width:2;stroke-linejoin:miter;stroke-miterlimit:4;stroke-dasharray:none;stroke-dashoffset:0;stroke-opacity:1" />
      </g>
    </g>
    <g
       id="g12589"
       transform="translate(0.03748578,0.13667606)">
      <path
         id="path12037"
         transform="translate(0,932.36218)"
         d="M 58.158203,9.4492188 56.441406,23.941406 c -6.067838,0.585905 -11.695833,2.666409 -16.511718,5.869141 L 29.333984,19.740234 15.212891,36.439453 26.90625,45.210938 c -1.997199,4.478826 -3.117188,9.434073 -3.117188,14.652343 10e-7,0.810913 0.03707,1.612569 0.08984,2.410157 l -14.0410154,3.884765 7.4492184,20.707031 13.46875,-5.716796 c 3.421839,4.666245 7.938202,8.479896 13.173829,11.068359 l -3.335938,14.253903 21.185547,3.80664 1.716797,-14.492184 c 6.067885,-0.585907 11.695807,-2.668319 16.511718,-5.871094 L 90.603516,99.984375 104.72461,83.287109 93.03125,74.513672 c 1.99703,-4.478657 3.11718,-9.432377 3.117188,-14.650391 0,-0.69129 -0.02406,-1.376898 -0.0625,-2.058593 L 110.09961,53.566406 102.65039,32.861328 89.181641,38.578125 C 85.759605,33.911508 81.243886,30.096335 76.007812,27.507812 L 79.34375,13.253906 58.158203,9.4492188 Z"
         style="opacity:1;fill:#999999;fill-opacity:1;stroke:#1a1a1a;stroke-width:1.99999976;stroke-linejoin:miter;stroke-miterlimit:4;stroke-dasharray:none;stroke-dashoffset:0;stroke-opacity:1"
         inkscape:connector-curvature="0" />
      <circle
         r="14.967995"
         cy="992.22498"
         cx="59.852924"
         id="path12587"
         style="opacity:1;fill:#ffffff;fill-opacity:1;stroke:#1a1a1a;stroke-width:2;stroke-linejoin:miter;stroke-miterlimit:4;stroke-dasharray:none;stroke-dashoffset:0;stroke-opacity:1" />
    </g>
  </g>
</svg>
